<svg xmlns="http://www.w3.org/2000/svg" viewBox="0 0 1280 800" width="1280" height="800" role="img" aria-label="view from an airliner window over the wing">
  <defs>
    <linearGradient id="g1stgnrm" x1="0" y1="0" x2="1" y2="1">
      <stop offset="0%" stop-color="#2E353D"/>
      <stop offset="100%" stop-color="#1B2026"/>
    </linearGradient>
    <radialGradient id="r1stgnrm" cx="66%" cy="-2%" r="65%">
      <stop offset="0%" stop-color="#FE0002" stop-opacity="0.55"/>
      <stop offset="55%" stop-color="#FE0002" stop-opacity="0.12"/>
      <stop offset="100%" stop-color="#FE0002" stop-opacity="0"/>
    </radialGradient>
  </defs>
  <rect width="1280" height="800" fill="url(#g1stgnrm)"/>
  <rect width="1280" height="800" fill="url(#r1stgnrm)"/>
  <circle cx="640" cy="370" r="86" fill="#ffffff" fill-opacity="0.08"/>
  <g transform="translate(596, 326) scale(3.67)" fill="none" stroke="#ffffff" stroke-opacity="0.92" stroke-width="1.3" stroke-linecap="round" stroke-linejoin="round"><path d="M10.5 19.5 12 21l1.5-1.5"/><path d="M21 13.5v-2l-7-4V4a2 2 0 1 0-4 0v3.5l-7 4v2l7-2v4l-2 1.5v1.5l4-1 4 1V17l-2-1.5v-4Z"/></g>
  <g font-family="'IBM Plex Sans Arabic', 'Segoe UI', system-ui, sans-serif">
    <rect x="0" y="724" width="1280" height="76" fill="#000000" fill-opacity="0.26"/>
    <text x="40" y="770" fill="#ffffff" fill-opacity="0.92" font-size="28" font-weight="600">view from an airliner window over the wing</text>
  </g>
</svg>
